# xmcd
#
# Track frame offsets: 
#        150
#        13682
#        35857
#        49412
#        64294
#        78944
#        90759
#        101841
#        118255
#        131488
#        142388
#        156507
#        176079
#        196154
#        210048
#        228024
#        239448
#        250008
#        264960
#        285098
#        302140
#        313649
#        326228
#        339297
#
# Disc length: 4654 seconds
#
# Revision: 0
# Processed by: cddbd v1.5.1PL0 Copyright (c) Steve Scherf et al.
# Submitted via: ExactAudioCopy v0.95a5
#
DISCID=52122c18
DTITLE=Various Artist - Sk³adanka Listopad 2005
DYEAR=2005
DGENRE=Club-House
TTITLE0=Rudi Shubert - Córka Rybaka
TTITLE1=Przeboje Lata Z Radie - Zegnaj Lato Na Rok
TTITLE2=Boney M. - Bang Bang Lulu
TTITLE3=Czes³aw Niemen - Sen o Warszawie
TTITLE4=Guzek i BlackOut - Anna
TTITLE5=Piotr Janczerski - Ballada ratuszowego zegara
TTITLE6=2+1 - Komu W Oczach SÃoñce
TTITLE7=Boney M. - Hooray! Hooray!
TTITLE8=Kosowsski and Czerwono Czarni - Agatko Poca³uj
TTITLE9=Czerwono Czarni i Karin Stanek - Wala Twist
TTITLE10=Czes³aw Niemen - Stojê w Oknie
TTITLE11=2+1 - Isc w strone slonca
TTITLE12=Boney M. - Rasputin
TTITLE13=2+1 - Chodz pomaluj moj swiat
TTITLE14=Fns - Lato
TTITLE15=Tajfuny - Zachodni Wiatr
TTITLE16=Korda NIEBIESKO Czarni - Hej Tam w Dolinie
TTITLE17=Boney M. - Bahama mama
TTITLE18=2+1 - Winda do nieba
TTITLE19=Ryszard Rynkowski - Jedzie poci¹g
TTITLE20=Stanek i Czerwono Czarni - Jedziemy Autostopem
TTITLE21=2+1 - California mon amour
TTITLE22=Boney M. - Felicidad
TTITLE23=Czes³aw Niemen - Jo³oczki Sosio³oczki
EXTD=
EXTT0=
EXTT1=
EXTT2=
EXTT3=
EXTT4=
EXTT5=
EXTT6=
EXTT7=
EXTT8=
EXTT9=
EXTT10=
EXTT11=
EXTT12=
EXTT13=
EXTT14=
EXTT15=
EXTT16=
EXTT17=
EXTT18=
EXTT19=
EXTT20=
EXTT21=
EXTT22=
EXTT23=
PLAYORDER=
